<?xml version="1.0" standalone="no"?>
<!DOCTYPE svg PUBLIC "-//W3C//DTD SVG 20010904//EN"
 "http://www.w3.org/TR/2001/REC-SVG-20010904/DTD/svg10.dtd">
<svg version="1.0" xmlns="http://www.w3.org/2000/svg"
 width="267.000000pt" height="278.000000pt" viewBox="0 0 267.000000 278.000000"
 preserveAspectRatio="xMidYMid meet">

<g transform="translate(0.000000,278.000000) scale(0.100000,-0.100000)"
fill="#000000" stroke="none">
<path d="M0 1390 l0 -1390 1335 0 1335 0 0 1390 0 1390 -1335 0 -1335 0 0
-1390z m2615 1346 c24 -36 10 -53 -102 -138 -54 -40 -145 -120 -203 -178
l-105 -105 133 -3 132 -3 -2 -902 -3 -902 -202 -3 -203 -2 0 -210 0 -210 -900
0 -900 0 0 900 0 900 205 0 205 0 0 215 0 215 651 0 651 0 111 106 c61 58 144
131 185 162 228 175 311 213 347 158z"/>
<path d="M910 1970 l0 -90 334 0 335 0 76 90 76 90 -410 0 -411 0 0 -90z"/>
<path d="M1896 1973 l-76 -88 120 -3 120 -3 0 -564 0 -565 85 0 85 0 0 655 0
655 -129 0 -129 0 -76 -87z"/>
<path d="M500 1394 l0 -236 49 -57 c26 -31 63 -80 81 -108 17 -29 34 -53 36
-53 2 0 4 155 4 345 l0 345 -85 0 -85 0 0 -236z"/>
<path d="M910 1228 l0 -401 50 102 c74 151 294 515 392 649 l39 52 -241 0
-240 0 0 -402z"/>
<path d="M1612 1618 c-17 -21 -193 -290 -245 -375 -121 -198 -228 -393 -257
-469 l-10 -24 355 0 355 0 0 440 0 440 -94 0 c-63 0 -97 -4 -104 -12z"/>
<path d="M501 573 l-1 -253 96 0 96 0 -7 33 c-17 84 -81 263 -129 362 l-54
110 -1 -252z"/>
<path d="M966 422 c-14 -42 -26 -83 -26 -90 0 -9 94 -12 435 -12 l435 0 0 90
0 90 -409 0 -409 0 -26 -78z"/>
</g>
</svg>
